<svg xmlns="http://www.w3.org/2000/svg" xmlns:xlink="http://www.w3.org/1999/xlink">
    <defs>
        <symbol xmlns="http://www.w3.org/2000/svg" viewBox="0 0 137 50" id="okko"><path fill="inherit" d="M82.34 42.96l1.95-2.81 8.43 9.42h11.44L89.27 32.92l13.3-19.28H92.21l-9.87 14.31V1.02h-8.51v48.55h8.51zm-32.81 0l1.94-2.81 8.44 9.42h11.45l-14.9-16.65 13.3-19.28H59.4l-9.87 14.31V1.02h-8.51v48.55h8.51zm49.94-11.82c0 10.41 8.4 18.86 18.77 18.86C128.6 50 137 41.55 137 31.14c0-10.42-8.4-18.86-18.76-18.86-10.37 0-18.77 8.44-18.77 18.86zm-80.7-18.86C8.4 12.28 0 20.72 0 31.14 0 41.55 8.4 50 18.77 50c10.36 0 18.76-8.45 18.76-18.86 0-10.42-8.4-18.86-18.76-18.86zM18.61 0c-2.35 0-4.25 1.91-4.25 4.28 0 2.36 1.9 4.28 4.25 4.28s4.25-1.92 4.25-4.28c0-2.37-1.9-4.28-4.25-4.28zm11.28 0c-2.35 0-4.25 1.91-4.25 4.28 0 2.36 1.9 4.28 4.25 4.28s4.26-1.92 4.26-4.28c0-2.37-1.91-4.28-4.26-4.28zM8.36 0C6.01 0 4.1 1.91 4.1 4.28c0 2.36 1.91 4.28 4.26 4.28 2.35 0 4.25-1.92 4.25-4.28 0-2.37-1.9-4.28-4.25-4.28zm.15 31.14c0-5.68 4.6-10.31 10.26-10.31 5.65 0 10.25 4.63 10.25 10.31 0 5.68-4.6 10.3-10.25 10.3-5.66 0-10.26-4.62-10.26-10.3zm99.47 0c0-5.68 4.6-10.31 10.26-10.31 5.65 0 10.25 4.63 10.25 10.31 0 5.68-4.6 10.3-10.25 10.3-5.66 0-10.26-4.62-10.26-10.3z"/></symbol>
        <symbol xmlns="http://www.w3.org/2000/svg" viewBox="0 0 25 25" id="search"><path d="M17.407 17.296a.958.958 0 00-.047-.043 9.094 9.094 0 002.43-6.211C19.791 6.049 15.808 2 10.895 2S2 6.049 2 11.043c0 4.994 3.983 9.043 8.895 9.043a8.762 8.762 0 005.366-1.83c.025.036.053.07.085.102l5.303 5.303A.75.75 0 1022.71 22.6l-5.303-5.304zm-1.216-1.13l-.577.573-.327.251a7.143 7.143 0 01-4.392 1.499c-4.024 0-7.298-3.34-7.298-7.446s3.274-7.445 7.298-7.445 7.298 3.34 7.298 7.445a7.496 7.496 0 01-2.002 5.123z"/></symbol>
        <symbol xmlns="http://www.w3.org/2000/svg" viewBox="490 660 40 42" id="gift"><path fill="inherit" fill-rule="evenodd" d="M520.34 660c-5.03 0-8.595 4.268-10.345 6.963-1.754-2.692-5.317-6.936-10.336-6.936-3.185 0-5.494 1.78-5.494 4.198 0 4.286 5.203 7.083 15.664 7.083 10.46 0 16.003-3.595 16.003-7.047 0-.685-.163-1.357-.543-1.97-.89-1.433-2.742-2.29-4.95-2.29zM490 675.33c0-.883.717-1.6 1.608-1.6h10.117c.888 0 1.608.713 1.608 1.6v6.493c0 .884-.717 1.6-1.608 1.6h-10.117a1.602 1.602 0 01-1.608-1.6v-6.492zm3.333 12.124c0-.888.72-1.608 1.607-1.608h6.787c.887 0 1.606.715 1.606 1.608v12.938c0 .888-.72 1.608-1.606 1.608h-6.787a1.605 1.605 0 01-1.607-1.608v-12.938zm13.334 0a1.6 1.6 0 011.603-1.608h16.794c.885 0 1.603.715 1.603 1.608v12.938c0 .888-.712 1.608-1.603 1.608H508.27a1.602 1.602 0 01-1.603-1.608v-12.938zm0-12.123c0-.882.724-1.6 1.603-1.6h20.126a1.6 1.6 0 011.604 1.6v6.494c0 .884-.724 1.6-1.604 1.6H508.27a1.6 1.6 0 01-1.603-1.6v-6.492zm.833-6.444c-1.355-2.652-4.672-6.462-7.76-6.462-1.196 0-1.877.544-2.117 1.053-.19.406-.16.887.095 1.428.813 1.727 4.416 3.557 9.782 3.98zm5 0c1.355-2.652 4.672-6.462 7.76-6.462 1.196 0 1.877.544 2.117 1.053.19.406.16.887-.095 1.428-.813 1.727-4.416 3.557-9.782 3.98z"/></symbol>
        <symbol xmlns="http://www.w3.org/2000/svg" fill="none" viewBox="0 0 24 24" id="profile"><circle cx="12" cy="12" r="10.875" stroke="currentColor" stroke-width="1.5"/><path d="M20.25 19.5c-1.285-1.923-4.316-3-8.271-3-3.95 0-6.93 1.049-8.229 2.923" stroke="currentColor" stroke-width="1.5"/><circle cx="12" cy="9.75" r="3.375" stroke="currentColor" stroke-width="1.5"/></symbol>
    </defs>
</svg>
    