<svg xmlns="http://www.w3.org/2000/svg" xmlns:xlink="http://www.w3.org/1999/xlink">
    <defs>
        <symbol xmlns="http://www.w3.org/2000/svg" viewBox="0 0 137 50" id="okko"><path fill="inherit" d="M82.34 42.96l1.95-2.81 8.43 9.42h11.44L89.27 32.92l13.3-19.28H92.21l-9.87 14.31V1.02h-8.51v48.55h8.51zm-32.81 0l1.94-2.81 8.44 9.42h11.45l-14.9-16.65 13.3-19.28H59.4l-9.87 14.31V1.02h-8.51v48.55h8.51zm49.94-11.82c0 10.41 8.4 18.86 18.77 18.86C128.6 50 137 41.55 137 31.14c0-10.42-8.4-18.86-18.76-18.86-10.37 0-18.77 8.44-18.77 18.86zm-80.7-18.86C8.4 12.28 0 20.72 0 31.14 0 41.55 8.4 50 18.77 50c10.36 0 18.76-8.45 18.76-18.86 0-10.42-8.4-18.86-18.76-18.86zM18.61 0c-2.35 0-4.25 1.91-4.25 4.28 0 2.36 1.9 4.28 4.25 4.28s4.25-1.92 4.25-4.28c0-2.37-1.9-4.28-4.25-4.28zm11.28 0c-2.35 0-4.25 1.91-4.25 4.28 0 2.36 1.9 4.28 4.25 4.28s4.26-1.92 4.26-4.28c0-2.37-1.91-4.28-4.26-4.28zM8.36 0C6.01 0 4.1 1.91 4.1 4.28c0 2.36 1.91 4.28 4.26 4.28 2.35 0 4.25-1.92 4.25-4.28 0-2.37-1.9-4.28-4.25-4.28zm.15 31.14c0-5.68 4.6-10.31 10.26-10.31 5.65 0 10.25 4.63 10.25 10.31 0 5.68-4.6 10.3-10.25 10.3-5.66 0-10.26-4.62-10.26-10.3zm99.47 0c0-5.68 4.6-10.31 10.26-10.31 5.65 0 10.25 4.63 10.25 10.31 0 5.68-4.6 10.3-10.25 10.3-5.66 0-10.26-4.62-10.26-10.3z"/></symbol>
        <symbol xmlns="http://www.w3.org/2000/svg" viewBox="0 0 25 25" id="search"><path d="M17.407 17.296a.958.958 0 00-.047-.043 9.094 9.094 0 002.43-6.211C19.791 6.049 15.808 2 10.895 2S2 6.049 2 11.043c0 4.994 3.983 9.043 8.895 9.043a8.762 8.762 0 005.366-1.83c.025.036.053.07.085.102l5.303 5.303A.75.75 0 1022.71 22.6l-5.303-5.304zm-1.216-1.13l-.577.573-.327.251a7.143 7.143 0 01-4.392 1.499c-4.024 0-7.298-3.34-7.298-7.446s3.274-7.445 7.298-7.445 7.298 3.34 7.298 7.445a7.496 7.496 0 01-2.002 5.123z"/></symbol>
        <symbol xmlns="http://www.w3.org/2000/svg" viewBox="490 660 40 42" id="gift"><path fill="inherit" fill-rule="evenodd" d="M520.34 660c-5.03 0-8.595 4.268-10.345 6.963-1.754-2.692-5.317-6.936-10.336-6.936-3.185 0-5.494 1.78-5.494 4.198 0 4.286 5.203 7.083 15.664 7.083 10.46 0 16.003-3.595 16.003-7.047 0-.685-.163-1.357-.543-1.97-.89-1.433-2.742-2.29-4.95-2.29zM490 675.33c0-.883.717-1.6 1.608-1.6h10.117c.888 0 1.608.713 1.608 1.6v6.493c0 .884-.717 1.6-1.608 1.6h-10.117a1.602 1.602 0 01-1.608-1.6v-6.492zm3.333 12.124c0-.888.72-1.608 1.607-1.608h6.787c.887 0 1.606.715 1.606 1.608v12.938c0 .888-.72 1.608-1.606 1.608h-6.787a1.605 1.605 0 01-1.607-1.608v-12.938zm13.334 0a1.6 1.6 0 011.603-1.608h16.794c.885 0 1.603.715 1.603 1.608v12.938c0 .888-.712 1.608-1.603 1.608H508.27a1.602 1.602 0 01-1.603-1.608v-12.938zm0-12.123c0-.882.724-1.6 1.603-1.6h20.126a1.6 1.6 0 011.604 1.6v6.494c0 .884-.724 1.6-1.604 1.6H508.27a1.6 1.6 0 01-1.603-1.6v-6.492zm.833-6.444c-1.355-2.652-4.672-6.462-7.76-6.462-1.196 0-1.877.544-2.117 1.053-.19.406-.16.887.095 1.428.813 1.727 4.416 3.557 9.782 3.98zm5 0c1.355-2.652 4.672-6.462 7.76-6.462 1.196 0 1.877.544 2.117 1.053.19.406.16.887-.095 1.428-.813 1.727-4.416 3.557-9.782 3.98z"/></symbol>
        <symbol xmlns="http://www.w3.org/2000/svg" fill="none" viewBox="0 0 24 24" id="profile"><circle cx="12" cy="12" r="10.875" stroke="currentColor" stroke-width="1.5"/><path d="M20.25 19.5c-1.285-1.923-4.316-3-8.271-3-3.95 0-6.93 1.049-8.229 2.923" stroke="currentColor" stroke-width="1.5"/><circle cx="12" cy="9.75" r="3.375" stroke="currentColor" stroke-width="1.5"/></symbol>
        <symbol xmlns="http://www.w3.org/2000/svg" viewBox="0 0 24 42" id="left"><path d="M21.2 42L0 20.95 21.1 0l2.8 2.77L5.6 20.95 24 39.23 21.2 42"/></symbol>
        <symbol xmlns="http://www.w3.org/2000/svg" viewBox="0 0 24 42" id="right"><path d="M2.8 42L0 39.2 18.4 21 0 2.7 3 0l21 21L2.8 42"/></symbol>
        <symbol xmlns="http://www.w3.org/2000/svg" viewBox="0 0 25 25" id="cross"><path d="M12.5 11.086l7.07-7.07a1 1 0 111.415 1.413l-7.07 7.071 7.07 7.07a1 1 0 11-1.414 1.414l-7.071-7.07-7.07 7.07a1 1 0 11-1.415-1.413l7.07-7.071-7.07-7.07A1 1 0 115.43 4.015l7.071 7.07z"/></symbol>
        <symbol xmlns="http://www.w3.org/2000/svg" viewBox="0 0 17 10" id="arrow-up-stroke"><path d="M15.437 8.333L8.5 1.667 1.543 8.333" stroke="currentColor" stroke-width="2" fill="none" stroke-linecap="round" stroke-linejoin="round"/></symbol>
        <symbol xmlns="http://www.w3.org/2000/svg" viewBox="0 0 18 18" id="chat"><path d="M13.557.853H4.39C2.033.853.095 2.78.095 5.125V16.38c0 .417.262.834.628 1.042.157.104.367.156.524.156.21 0 .42-.052.576-.156l3.039-1.51h8.695c2.358 0 4.296-1.929 4.296-4.274V5.125c.052-2.344-1.886-4.272-4.296-4.272zm-.262 11.62H8.843a.936.936 0 01-.943-.939c0-.52.419-.938.943-.938h4.452c.524 0 .943.417.943.938 0 .521-.419.938-.943.938zm0-3.231h-8.59a.937.937 0 01-.943-.938c0-.521.419-.938.943-.938h8.59c.524 0 .943.417.943.938 0 .52-.419.938-.943.938zm0-3.23h-8.59a.937.937 0 01-.943-.939c0-.52.419-.938.943-.938h8.59c.524 0 .943.417.943.938 0 .521-.419.938-.943.938z" fill="currentColor" fill-rule="nonzero"/></symbol>
        <symbol xmlns="http://www.w3.org/2000/svg" viewBox="0 0 25 25" id="hamburger"><path d="M3 6h18a1 1 0 000-2H3a1 1 0 100 2zm18 5H3a1 1 0 100 2h18a1 1 0 000-2zm0 7H3a1 1 0 100 2h18a1 1 0 000-2z"/></symbol>
        <symbol xmlns="http://www.w3.org/2000/svg" viewBox="0 0 24 15" id="social-vkontakte"><path d="M23.408 1.372c.177-.558 0-.963-.786-.963h-2.61c-.66 0-.963.355-1.14.735 0 0-1.344 3.245-3.22 5.35-.608.608-.887.81-1.217.81-.177 0-.406-.203-.406-.76V1.346c0-.66-.203-.963-.76-.963H9.16c-.406 0-.66.304-.66.608 0 .634.938.786 1.04 2.56v3.854c0 .837-.152.99-.482.99-.887 0-3.042-3.27-4.335-6.997C4.47.662 4.217.383 3.558.383H.92c-.76 0-.887.355-.887.735 0 .685.887 4.132 4.132 8.696 2.155 3.118 5.223 4.792 7.986 4.792 1.673 0 1.876-.38 1.876-1.014v-2.358c0-.76.152-.887.685-.887.38 0 1.065.203 2.61 1.7 1.775 1.775 2.08 2.586 3.068 2.586H23c.76 0 1.115-.38.913-1.115-.228-.735-1.1-1.8-2.206-3.068-.608-.7-1.52-1.496-1.8-1.876-.38-.507-.28-.7 0-1.166-.025 0 3.17-4.513 3.5-6.034"/></symbol>
        <symbol xmlns="http://www.w3.org/2000/svg" viewBox="0 0 20 20" id="social-viber"><path d="M10.44 6.49a.253.253 0 01.266-.239c.522.028.956.186 1.265.505.308.319.46.764.486 1.298a.253.253 0 11-.505.025c-.023-.457-.149-.769-.344-.971-.195-.201-.492-.329-.928-.351a.253.253 0 01-.24-.266z"/><path d="M10.328 4.895a.253.253 0 10-.037.504c.963.07 1.686.393 2.203.957.519.567.774 1.274.755 2.14a.253.253 0 10.505.011c.022-.982-.271-1.819-.887-2.492-.623-.68-1.478-1.043-2.54-1.12z"/><path d="M9.61 3.833a.253.253 0 01.255-.251c1.468.01 2.708.499 3.704 1.47 1.005.979 1.501 2.312 1.514 3.967a.253.253 0 11-.506.004c-.012-1.551-.473-2.744-1.36-3.609-.897-.873-2.01-1.317-3.356-1.326a.253.253 0 01-.25-.255zm1.68 7.415c-.192.236-.547.206-.547.206-2.598-.663-3.294-3.295-3.294-3.295s-.031-.356.206-.547l.47-.373c.232-.18.38-.615.144-1.04-.182-.32-.38-.629-.592-.928-.207-.283-.689-.86-.69-.862-.233-.274-.574-.338-.934-.15h-.004l-.004.001c-.358.207-.68.469-.956.777 0 .002-.002.002-.003.003l-.002.004c-.223.268-.35.531-.382.789a1.05 1.05 0 00.044.45l.012.009c.113.398.393 1.062 1.004 2.168.349.64.751 1.25 1.203 1.821.226.287.469.56.727.82l.027.027.028.028.055.055c.259.258.532.5.82.727.571.452 1.18.854 1.82 1.203 1.107.61 1.771.891 2.169 1.003l.008.013a1.049 1.049 0 00.451.044c.258-.03.521-.158.789-.381l.004-.004.003-.002a3.897 3.897 0 00.778-.963c.187-.36.124-.702-.152-.934l-.06-.05c-.157-.129-.575-.474-.802-.64-.299-.213-.609-.41-.927-.593-.426-.237-.86-.088-1.04.145l-.373.47z"/><path clip-rule="evenodd" d="M17.34 1.954c-.497-.459-2.505-1.916-6.977-1.936 0 0-5.273-.318-7.844 2.04C1.09 3.489.585 5.584.532 8.18.479 10.777.41 15.643 5.1 16.962h.005l-.003 2.013s-.03.815.507.982c.541.168.896-.236 1.36-.762a16.2 16.2 0 01.29-.324c.34-.367.81-.905 1.164-1.317 3.208.27 5.675-.347 5.955-.438.058-.019.14-.04.241-.066 1.037-.263 4.125-1.048 4.668-5.48.615-5.014-.298-8.187-1.947-9.616zm.543 9.257c-.453 3.658-2.908 4.23-3.793 4.435-.098.023-.176.041-.23.059-.234.075-2.4.614-5.126.436 0 0-2.03 2.45-2.664 3.086-.1.1-.216.14-.293.12-.11-.026-.14-.156-.138-.345l.017-3.345C1.82 14.59 1.91 10.684 1.96 8.467l.005-.222c.045-2.169.452-3.945 1.662-5.14 2.175-1.97 6.654-1.675 6.654-1.675 3.783.016 5.595 1.155 6.016 1.537 1.395 1.195 2.106 4.054 1.586 8.243v.001z"/></symbol>
        <symbol xmlns="http://www.w3.org/2000/svg" viewBox="0 0 12 20" id="social-odnoklassniki"><path d="M11.82 10.74c-.285-.574-1.075-1.052-2.124-.223C8.278 11.64 6 11.64 6 11.64s-2.278 0-3.696-1.12c-1.05-.83-1.84-.35-2.124.223-.497 1 .065 1.485 1.332 2.3 1.082.697 2.57.957 3.53 1.054l-3.777 3.787a1.161 1.161 0 000 1.64l.136.137a1.156 1.156 0 001.637 0l2.975-2.983L8.99 19.66a1.156 1.156 0 001.637 0l.136-.137a1.161 1.161 0 000-1.64l-3.78-3.79c.96-.1 2.432-.36 3.506-1.052 1.267-.815 1.83-1.3 1.332-2.3zM6 2.572c1.372 0 2.484 1.115 2.484 2.5S7.372 7.552 6 7.552s-2.484-1.115-2.484-2.5 1.112-2.5 2.484-2.5zm0 7.552c2.788 0 5.05-2.266 5.05-5.062S8.79 0 6 0 .95 2.266.95 5.062 3.21 10.124 6 10.124z"/></symbol>
        <symbol xmlns="http://www.w3.org/2000/svg" viewBox="0 0 21 18" id="social-telegram"><path d="M19.61 1.11L1.89 7.94C.68 8.43.69 9.1 1.67 9.4l4.55 1.42 10.52-6.64c.5-.3 1-.14.58.19l-8.53 7.7-.31 4.69a1.18 1.18 0 00.92-.46l2.21-2.15 4.59 3.4c.85.46 1.46.22 1.67-.79l3-14.22c.33-1.23-.45-1.8-1.26-1.43z"/></symbol>
        <symbol xmlns="http://www.w3.org/2000/svg" viewBox="0 0 22 16" id="social-youtube"><path d="M8.75 11.377V4.623L14.5 8l-5.75 3.377zm12.8-8.878c-.253-.983-.998-1.758-1.945-2.02C17.88 0 11 0 11 0S4.12 0 2.405.478C1.458.74.713 1.515.46 2.498 0 4.28 0 8 0 8s0 3.72.46 5.502c.253.983 1 1.758 1.945 2.02C4.12 16 11 16 11 16s6.88 0 8.595-.478c.947-.263 1.692-1.037 1.945-2.02C22 11.72 22 8 22 8s0-3.72-.46-5.502z"/></symbol>
    </defs>
</svg>
    